<svg width="1440" height="183" viewBox="0 0 1440 183" fill="none" xmlns="http://www.w3.org/2000/svg">
<rect width="1442" height="183" fill="#959392"/>
<g clip-path="url(#clip0)">
<path d="M206.756 120.404L203.962 119.712L204.116 115.763C204.149 114.895 203.56 114.112 202.715 113.903L171.127 106.081C170.281 105.872 169.395 106.289 169.02 107.073L167.313 110.637L164.519 109.945C163.285 109.639 162.033 110.393 161.729 111.624L160.814 115.317C160.509 116.548 161.265 117.799 162.499 118.105L163.597 118.376L163.138 122.894C162.923 122.956 162.717 123.052 162.529 123.184C162.049 123.522 161.74 124.05 161.68 124.634L158.621 154.791C158.537 155.623 158.984 156.41 159.701 156.788L159.265 161.081C159.099 162.719 160.181 164.252 161.781 164.649L183.651 170.064C185.252 170.461 186.924 169.609 187.541 168.083L189.16 164.082C189.97 164.083 190.733 163.596 191.046 162.821L202.413 134.72C202.633 134.176 202.606 133.564 202.339 133.042C202.234 132.838 202.097 132.657 201.934 132.501L203.638 128.292L204.736 128.563C205.97 128.869 207.222 128.115 207.527 126.884L208.441 123.191C208.745 121.96 207.99 120.709 206.756 120.404ZM200.803 134.07L189.436 162.17C189.382 162.303 189.236 162.377 189.096 162.343L181.031 160.346C180.566 160.231 180.095 160.514 179.98 160.978C179.865 161.443 180.149 161.913 180.614 162.028L187.435 163.717L185.931 167.433C185.635 168.164 184.834 168.572 184.067 168.382L162.198 162.967C161.431 162.777 160.913 162.042 160.992 161.258L161.397 157.269L176.693 161.057C177.158 161.172 177.629 160.889 177.744 160.425C177.859 159.96 177.575 159.49 177.109 159.375L160.568 155.279C160.428 155.244 160.334 155.111 160.348 154.967L163.407 124.81C163.419 124.695 163.489 124.63 163.529 124.602C163.568 124.574 163.647 124.536 163.751 124.556C163.763 124.558 163.774 124.56 163.786 124.562L200.583 133.674C200.595 133.678 200.606 133.681 200.617 133.685C200.718 133.715 200.77 133.787 200.792 133.829C200.815 133.873 200.846 133.963 200.803 134.07ZM165.3 118.798L201.935 127.87L200.334 131.827L164.869 123.045L165.3 118.798ZM205.841 126.466C205.766 126.771 205.457 126.956 205.152 126.881L162.915 116.422C162.611 116.347 162.424 116.038 162.499 115.734L163.414 112.041C163.489 111.737 163.798 111.551 164.103 111.627L171.644 113.494C172.109 113.609 172.579 113.326 172.695 112.862C172.81 112.397 172.526 111.927 172.06 111.812L169.035 111.063L170.587 107.821C170.609 107.775 170.661 107.751 170.71 107.763L202.299 115.585C202.348 115.597 202.383 115.643 202.381 115.694L202.241 119.286L175.982 112.783C175.516 112.668 175.046 112.951 174.931 113.415C174.816 113.88 175.1 114.35 175.565 114.465L206.339 122.086C206.644 122.161 206.831 122.47 206.755 122.774L205.841 126.466Z" fill="#F3F3F3" fill-opacity="0.7"/>
<path d="M186.562 138.61C186.558 138.603 186.553 138.597 186.548 138.589C184.432 135.129 179.187 134.439 174.836 137.058C172.757 138.308 171.179 140.124 170.393 142.171C169.578 144.294 169.703 146.412 170.744 148.135C170.744 148.135 170.744 148.136 170.745 148.136C170.746 148.139 170.748 148.142 170.75 148.144C171.63 149.594 173.06 150.6 174.843 151.041C175.172 151.123 175.514 151.185 175.866 151.227C178.047 151.489 180.394 150.943 182.473 149.693C186.834 147.068 188.67 142.099 186.565 138.615C186.564 138.613 186.563 138.612 186.562 138.61ZM172.014 142.793C172.663 141.104 173.984 139.595 175.733 138.542C177.83 137.28 180.153 136.917 182.034 137.383C182.899 137.598 183.67 137.988 184.283 138.545C182.66 139.034 180.054 140.14 178.78 142.421C177.672 144.403 173.934 145.978 171.932 146.642C171.466 145.5 171.489 144.159 172.014 142.793ZM181.575 148.208C179.825 149.261 177.871 149.722 176.072 149.506C174.801 149.354 173.725 148.874 172.943 148.126C174.964 147.412 178.909 145.749 180.296 143.266C181.429 141.237 184.141 140.354 185.354 140.05C186.473 142.68 184.885 146.216 181.575 148.208Z" fill="#F3F3F3" fill-opacity="0.7"/>
</g>
<path d="M59.1062 133.089C59.5688 133.089 60.0307 133.051 60.4872 132.976C60.6337 132.952 60.7843 132.923 60.9336 132.89C61.7703 132.705 62.5741 132.395 63.3176 131.969C65.5368 130.701 67.2848 128.387 68.2395 125.453C68.5607 124.46 68.7879 123.439 68.918 122.403C69.2344 122.434 69.5536 122.451 69.876 122.451C71.831 122.451 73.8846 121.886 75.9022 120.782C78.5101 119.355 80.8194 117.151 82.5803 114.406C86.5602 108.205 86.669 100.843 82.8397 96.9015C82.1826 96.2237 81.4159 95.6616 80.5718 95.2387C78.0325 93.9647 74.9065 94.0049 71.7699 95.3516C68.6792 96.6785 65.8501 99.1661 63.8033 102.356C63.1982 103.298 62.6719 104.288 62.2298 105.317C60.4363 103.998 58.4235 103.239 56.3606 103.213C55.7146 103.205 55.0699 103.271 54.4389 103.41C54.1491 103.474 53.863 103.553 53.5818 103.648C50.8876 104.548 48.7101 106.791 47.4507 109.964C46.2096 113.09 45.9755 116.849 46.7913 120.55C48.4055 127.877 53.6491 133.089 59.1062 133.089ZM82.3347 98.3085C83.6586 99.9434 84.3591 102.223 84.3189 104.809C84.2733 107.755 83.2635 110.912 81.4757 113.697C79.8331 116.257 77.688 118.309 75.2723 119.631C73.2147 120.756 71.057 121.268 69.12 121.103C72.9356 118.107 75.505 113.802 76.3314 109.021C76.9917 105.223 78.8314 101.73 81.5896 99.0362L82.3347 98.3085ZM79.38 97.6184L80.3896 96.6326C80.4716 96.681 80.5542 96.7306 80.6357 96.7825C80.9105 96.959 81.1727 97.1542 81.4206 97.3667L80.6726 98.0968C77.7169 100.983 75.7455 104.727 75.0381 108.797C74.3235 112.931 72.2102 116.693 69.0522 119.455C69.0345 118.924 68.9947 118.389 68.9327 117.851C71.646 115.03 73.4533 111.461 74.1221 107.604C74.7748 103.803 76.6156 100.307 79.38 97.6184ZM64.9077 103.064C68.5382 97.4066 74.592 94.4848 79.1126 96.0455L78.4631 96.6797C75.5009 99.5607 73.5283 103.307 72.829 107.379C72.2644 110.637 70.8278 113.681 68.6719 116.187C68.6429 116.042 68.613 115.896 68.5808 115.75C67.7109 111.801 65.7706 108.433 63.2887 106.184C63.7306 105.096 64.2726 104.052 64.9077 103.064ZM56.9917 105.606L57.002 104.564C59.0945 104.78 61.2041 105.893 63.0079 107.746C65.0632 109.857 66.5873 112.8 67.2995 116.032C67.9831 119.136 67.8737 122.338 66.9919 125.047C66.3169 127.121 65.2151 128.839 63.827 130.013C64.3964 125.195 63.1595 120.337 60.3555 116.377C58.1606 113.284 56.9843 109.583 56.9904 105.79C56.9904 105.729 56.9909 105.669 56.9917 105.606ZM54.4282 106.171L54.4416 104.76C54.5342 104.735 54.6272 104.712 54.7209 104.692C55.0401 104.622 55.3638 104.573 55.6896 104.548L55.6793 105.591C55.6784 105.658 55.6784 105.724 55.6784 105.791C55.6718 109.855 56.9321 113.821 59.2841 117.136C61.9359 120.88 63.0849 125.483 62.5036 130.034L62.3836 130.982C61.9892 131.186 61.5769 131.352 61.1517 131.479L61.242 130.764C61.3456 129.944 61.3977 129.117 61.3978 128.29C61.4049 124.225 60.1445 120.258 57.792 116.943C55.5595 113.798 54.3821 110.027 54.4282 106.171ZM53.1239 105.25L53.1153 106.158C53.066 110.29 54.3282 114.331 56.7203 117.7C58.9157 120.795 60.092 124.496 60.0856 128.29C60.0854 129.062 60.0367 129.833 59.9399 130.599L59.7952 131.743C57.4592 131.964 55.0297 131.03 52.9017 129.077C50.5675 126.935 48.8527 123.806 48.0732 120.268C46.6259 113.703 48.8273 107.353 53.1239 105.25Z" fill="#F3F3F3" fill-opacity="0.7"/>
<path d="M401.371 134.45C401.861 133.394 401.499 132.137 400.521 131.504C398.69 130.363 396.668 129.563 394.551 129.141C393.892 127.896 392.898 126.861 391.682 126.151C388.061 123.863 381.82 121.656 372.538 123.885C369.241 120.549 365.074 120.036 360.817 121.661C356.591 123.282 351.783 127.49 348.666 130.776C346.677 132.86 345.413 134.276 346.081 137C344.988 139.319 344.275 141.799 343.969 144.344C343.129 150.934 345.593 157.514 350.554 161.932C352.829 166.852 358.352 168.656 363.786 168.656C364.841 168.64 365.895 168.561 366.94 168.419C367.278 168.577 367.636 168.688 368.004 168.749C371.571 169.287 379.125 168.409 379.806 164.789C380.151 162.943 378.74 160.976 375.515 158.8C375.635 156.959 375.047 155.141 373.872 153.719C374.554 153.226 375.073 152.539 375.36 151.748C377.043 151.511 378.486 150.425 379.18 148.874C382.399 149.778 384.957 149.415 386.405 146.401C389.218 147.4 392.637 146.83 395.388 145.653C398.203 147.272 401.585 147.581 404.648 146.499C409.665 144.495 405.694 137.74 401.371 134.45ZM346.043 144.711C346.316 142.369 346.963 140.085 347.959 137.947C351.781 136.03 356.223 135.768 360.243 137.223C368.104 140.203 372.655 149.343 373.401 150.94C373.214 151.515 372.813 151.996 372.282 152.283C369.792 150.756 367.115 149.56 364.316 148.726C355.713 145.859 349.376 151.063 349.554 157.696C346.699 154.01 345.434 149.335 346.043 144.711ZM363.276 166.55C360.716 166.508 354.541 165.867 352.372 160.879C349.505 154.276 355.144 147.879 363.652 150.717C366.011 151.444 368.29 152.408 370.454 153.595C372.537 154.874 373.118 155.979 373.33 157.514C372.509 157.169 371.599 157.102 370.737 157.323C367.855 158.144 365.586 160.371 364.712 163.238C364.338 164.316 364.425 165.5 364.953 166.511C364.395 166.556 363.836 166.569 363.276 166.55ZM377.747 164.402C377.619 165.086 376.371 166.003 373.254 166.523C371.628 166.829 369.965 166.881 368.323 166.675C367.717 166.576 367.186 166.214 366.871 165.687C366.556 165.16 366.491 164.52 366.692 163.94C367.332 161.72 369.069 159.985 371.29 159.347C371.827 159.217 372.394 159.308 372.864 159.6C377.691 162.465 377.821 164.001 377.747 164.402ZM375.124 149.669C371.261 141.654 364.089 134.175 355.111 134.175C352.665 134.2 350.248 134.698 347.992 135.643C348.01 134.594 348.771 133.711 349.928 132.496C357.397 124.665 366.571 118.252 372.553 127.221C378.043 135.452 380.393 148.76 375.123 149.669H375.124ZM379.865 146.894C381.223 140.652 377.908 131.167 374.039 125.691C382.054 124.012 387.418 125.935 390.57 127.927C391.281 128.353 391.898 128.918 392.386 129.589C388.889 131.575 386.533 135.093 386.028 139.083C385.817 140.979 385.427 142.851 384.862 144.674C384.078 146.901 382.954 147.76 379.864 146.894H379.865ZM387.132 144.434C387.565 142.772 387.891 141.083 388.105 139.378C388.551 135.834 390.734 132.745 393.926 131.141C395.854 131.507 397.698 132.223 399.367 133.255C399.54 133.37 399.56 133.622 399.286 133.795C397.551 135.055 396.242 136.815 395.535 138.839C394.771 140.427 394.301 142.139 394.144 143.894C391.935 144.861 389.463 145.051 387.131 144.434H387.132ZM403.872 144.551C400.941 145.725 397.948 144.623 396.25 143.737C396.456 142.311 396.871 140.924 397.484 139.62C397.978 138.222 398.806 136.966 399.897 135.962C402.369 137.728 405.059 141.274 404.891 143.307C404.858 143.899 404.446 144.402 403.871 144.551H403.872Z" fill="#F3F3F3" fill-opacity="0.7"/>
<path d="M367.341 125.324C365.692 124.8 363.909 124.892 362.322 125.582C360.385 126.422 358.577 127.531 356.95 128.876C356.74 129.04 356.53 129.207 356.32 129.377C355.971 129.656 355.621 129.948 355.271 130.251C354.862 130.635 354.828 131.274 355.195 131.7C355.561 132.126 356.198 132.187 356.639 131.839C356.969 131.554 357.3 131.278 357.632 131.009C357.83 130.85 358.03 130.694 358.232 130.535C359.698 129.319 361.325 128.312 363.067 127.542C364.173 127.042 365.42 126.95 366.587 127.283C367.128 127.491 367.735 127.22 367.942 126.679C368.149 126.137 367.878 125.531 367.337 125.324H367.341Z" fill="#F3F3F3" fill-opacity="0.7"/>
<path d="M398.082 148.672C396.054 148.672 394.41 150.316 394.41 152.344C394.41 154.372 396.054 156.016 398.082 156.016C400.11 156.016 401.754 154.372 401.754 152.344C401.754 150.316 400.11 148.672 398.082 148.672ZM398.082 153.918C397.213 153.918 396.508 153.213 396.508 152.344C396.508 151.475 397.213 150.77 398.082 150.77C398.951 150.77 399.656 151.475 399.656 152.344C399.656 153.213 398.951 153.918 398.082 153.918Z" fill="#F3F3F3" fill-opacity="0.7"/>
<path d="M391.262 151.82C391.842 151.82 392.311 151.35 392.311 150.77C392.311 150.191 391.842 149.721 391.262 149.721C390.683 149.721 390.213 150.191 390.213 150.77C390.213 151.35 390.683 151.82 391.262 151.82Z" fill="#F3F3F3" fill-opacity="0.7"/>
<path d="M387.066 152.869C387.645 152.869 388.115 152.399 388.115 151.82C388.115 151.24 387.645 150.771 387.066 150.771C386.486 150.771 386.016 151.24 386.016 151.82C386.016 152.399 386.486 152.869 387.066 152.869Z" fill="#F3F3F3" fill-opacity="0.7"/>
<path d="M459.048 52.2527C458.697 54.6781 459.76 56.9276 461.99 58.5734C460.726 59.481 459.357 61.1516 458.931 63.5716C458.213 67.6563 461.508 69.4023 463.304 70.3419C461.817 71.4622 459.923 73.4645 459.311 76.1105C458.89 77.9303 459.038 80.6716 462.129 83.3947C463.975 85.0202 466.239 86.0789 467.425 86.5653C468.005 86.8027 468.669 86.5881 469.003 86.0555C469.342 85.5165 469.264 84.8223 468.812 84.3668C468.125 83.6751 467.37 82.5652 467.678 81.2125C468.053 79.5676 469.527 77.7314 477.667 78.1357C480.423 78.2726 482.503 77.5375 483.848 75.9506C485.432 74.0826 485.578 71.5202 485.406 69.6493C486.219 69.8103 487.2 69.8775 488.184 69.7227C490.125 69.4167 491.593 68.3486 492.429 66.6329C493.469 64.4974 493.464 62.7148 493.097 61.3539C493.352 61.1611 493.568 60.9057 493.717 60.5942L494.385 59.2044C495.607 56.6626 494.962 53.6586 492.996 51.8549L494.251 45.3993L494.251 45.3979L498.353 24.2893C498.353 24.2893 498.353 24.2879 498.354 24.2868L500.203 14.7733C500.47 13.3961 499.829 12.0498 498.609 11.4243C497.387 10.7985 495.961 11.086 495.061 12.1397L470.825 40.495C468.245 39.9697 465.538 41.2563 464.317 43.798L463.649 45.1878C463.505 45.4888 463.439 45.8085 463.439 46.1234C461.657 46.7547 459.613 48.3421 459.048 52.2527ZM496.804 13.7245C497.101 13.378 497.444 13.5002 497.577 13.5687C497.711 13.6373 498.014 13.8458 497.926 14.2989L496.55 21.3778C495.519 20.1467 494.452 18.9363 493.356 17.7589L496.804 13.7245ZM486.825 25.4002C487.077 25.676 487.328 25.9526 487.573 26.2279C488.007 26.7149 488.742 26.7481 489.214 26.301C489.686 25.854 489.717 25.0968 489.282 24.6089C488.982 24.2722 488.675 23.934 488.365 23.5979L491.816 19.5609C493.258 21.1174 494.649 22.7308 495.967 24.374L494.627 31.2693C494.067 30.4917 493.492 29.7228 492.909 28.9695C492.799 28.8283 492.665 28.7193 492.518 28.6441C492.126 28.4431 491.64 28.4802 491.276 28.7803C490.776 29.193 490.694 29.9468 491.096 30.4634C492.103 31.7632 493.078 33.1104 494.004 34.4714L492.576 41.8218C489.982 37.4031 486.913 33.2332 483.418 29.3855L486.825 25.4002ZM481.878 31.1889C485.799 35.5334 489.161 40.2967 491.887 45.3671L490.884 50.5293L488.229 49.1689C485.652 44.1486 482.393 39.4241 478.529 35.1065L481.878 31.1889ZM476.986 36.9122C479.862 40.1475 482.384 43.6168 484.521 47.2688L473.124 41.4295L476.986 36.9122ZM464.926 48.1954L482.468 57.1835C483.043 57.4781 483.739 57.2372 484.024 56.6448C484.309 56.0523 484.073 55.3334 483.499 55.0388L465.854 45.9979L466.398 44.8644C467.219 43.1552 469.139 42.3741 470.846 42.9739L470.848 42.9742C470.926 43.0022 471.002 43.0315 471.076 43.0629C471.078 43.064 471.081 43.0648 471.083 43.0659C471.157 43.0978 471.229 43.1317 471.297 43.1667L490.649 53.0824C490.718 53.1177 490.788 53.156 490.857 53.1979C490.859 53.199 490.861 53.2007 490.864 53.2021C490.933 53.2435 491.001 53.2877 491.07 53.3352C491.07 53.3363 491.071 53.3369 491.071 53.3369C492.567 54.3778 493.125 56.4288 492.304 58.138L491.759 59.2715L488.374 57.5369C487.799 57.2423 487.102 57.4838 486.818 58.0762C486.533 58.6687 486.769 59.3871 487.343 59.6816L490.636 61.3688C491.198 62.609 491.103 64.0156 490.353 65.5548C489.166 67.9933 486.074 67.465 485.086 67.088C485.04 67.07 484.994 67.0581 484.946 67.0451C484.782 66.2998 484.58 65.4845 484.382 64.9339C484.274 64.6366 484.064 64.4095 483.809 64.2785C483.531 64.1363 483.2 64.1081 482.888 64.2276C482.287 64.4582 481.981 65.1469 482.205 65.7672C482.508 66.6048 482.893 68.5466 483.02 69.2513C483.203 70.5282 483.334 72.9156 482.098 74.3723C481.242 75.3824 479.788 75.8437 477.775 75.7435C472.602 75.4866 466.522 75.8133 465.417 80.6614C465.235 81.461 465.25 82.1984 465.384 82.8626C463.22 81.5112 460.941 79.3908 461.57 76.6694C462.08 74.4646 463.844 72.8452 464.939 72.0858C465.671 71.6056 467.887 70.3965 469.535 70.4421C470.176 70.4595 470.709 69.9379 470.725 69.2767C470.736 68.7956 470.471 68.3728 470.079 68.1718C469.932 68.0966 469.767 68.0521 469.593 68.0475C468.249 68.0101 466.816 68.4862 465.696 68.9874C465.67 68.9671 465.646 68.9448 465.618 68.9265C465.264 68.6833 464.834 68.4587 464.378 68.2204C462.285 67.1251 460.833 66.1819 461.216 64.0025C461.538 62.1751 462.649 60.9872 463.446 60.453C463.807 60.2634 465.78 59.2563 467.955 58.7406C468.58 58.5925 468.969 57.9499 468.824 57.3052C468.743 56.9414 468.509 56.6544 468.208 56.5003C467.976 56.3812 467.704 56.3414 467.432 56.4059C466.343 56.6642 465.314 57.0241 464.467 57.3654C464.387 57.2981 464.302 57.2375 464.209 57.1853C462.721 56.3504 461.016 54.8791 461.344 52.6097C461.723 49.9951 462.896 48.5476 464.926 48.1954Z" fill="#F3F3F3" fill-opacity="0.7"/>
<path d="M1190.25 82.3773C1190.35 79.9287 1189.06 77.8005 1186.68 76.3929C1187.84 75.3601 1189.03 73.5575 1189.2 71.1066C1189.5 66.9696 1186.04 65.5719 1184.16 64.8221C1185.52 63.5547 1187.2 61.3682 1187.54 58.6733C1187.77 56.8198 1187.34 54.1082 1183.98 51.7177C1181.98 50.2907 1179.62 49.4707 1178.39 49.1088C1177.79 48.9324 1177.15 49.2142 1176.87 49.7784C1176.59 50.3494 1176.74 51.0319 1177.24 51.4385C1177.99 52.0558 1178.86 53.0821 1178.69 54.4593C1178.48 56.1341 1177.21 58.1122 1169.07 58.5477C1166.31 58.695 1164.32 59.6403 1163.15 61.3571C1161.76 63.3782 1161.88 65.942 1162.24 67.7853C1161.42 67.7088 1160.44 67.7429 1159.47 67.9982C1157.57 68.5023 1156.22 69.7158 1155.57 71.5083C1154.75 73.7396 1154.94 75.5122 1155.45 76.8281C1155.21 77.0461 1155.03 77.3223 1154.91 77.6476L1154.39 79.0988C1153.43 81.7527 1154.38 84.6744 1156.52 86.2663L1155.94 92.8167L1155.94 92.8181L1154.03 114.237C1154.03 114.237 1154.03 114.238 1154.03 114.239L1153.17 123.893C1153.05 125.29 1153.82 126.563 1155.1 127.06C1156.38 127.557 1157.77 127.124 1158.56 125.983L1179.75 95.2845C1182.37 95.5415 1184.93 93.9832 1185.88 91.3293L1186.4 89.8782C1186.52 89.5639 1186.55 89.2391 1186.51 88.926C1188.22 88.1146 1190.09 86.3253 1190.25 82.3773ZM1156.66 124.586C1156.4 124.961 1156.05 124.875 1155.91 124.821C1155.77 124.766 1155.45 124.59 1155.49 124.13L1156.13 116.947C1157.28 118.066 1158.46 119.16 1159.68 120.218L1156.66 124.586ZM1165.39 111.946C1165.11 111.697 1164.83 111.448 1164.56 111.199C1164.07 110.759 1163.34 110.802 1162.92 111.295C1162.49 111.789 1162.54 112.545 1163.02 112.985C1163.36 113.29 1163.7 113.594 1164.04 113.897L1161.02 118.267C1159.43 116.868 1157.88 115.406 1156.4 113.907L1157.02 106.91C1157.66 107.626 1158.31 108.332 1158.97 109.021C1159.09 109.15 1159.24 109.245 1159.39 109.305C1159.8 109.464 1160.28 109.377 1160.61 109.041C1161.07 108.579 1161.07 107.821 1160.62 107.349C1159.48 106.159 1158.37 104.92 1157.31 103.661L1157.98 96.2029C1161.01 100.331 1164.49 104.163 1168.36 107.631L1165.39 111.946ZM1169.71 105.679C1165.36 101.761 1161.53 97.3685 1158.3 92.6055L1158.76 87.3676L1161.54 88.4475C1164.62 93.176 1168.35 97.5401 1172.64 101.437L1169.71 105.679ZM1173.99 99.4822C1170.79 96.5599 1167.93 93.3687 1165.43 89.9559L1177.36 94.5916L1173.99 99.4822ZM1184.82 87.018L1166.45 79.8826C1165.85 79.6487 1165.18 79.96 1164.96 80.5786C1164.73 81.1972 1165.04 81.8881 1165.64 82.122L1184.13 89.2992L1183.7 90.4828C1183.06 92.2674 1181.23 93.2419 1179.47 92.8209L1179.47 92.8208C1179.39 92.801 1179.31 92.7796 1179.23 92.756C1179.23 92.7551 1179.23 92.7546 1179.23 92.7537C1179.15 92.7297 1179.07 92.7033 1179 92.6756L1158.73 84.8038C1158.66 84.7758 1158.59 84.7449 1158.51 84.7103C1158.51 84.7094 1158.51 84.7079 1158.51 84.7068C1158.43 84.6727 1158.36 84.6358 1158.29 84.5956C1158.29 84.5946 1158.29 84.5941 1158.29 84.5941C1156.69 83.7126 1155.93 81.73 1156.57 79.9453L1156.99 78.7618L1160.54 80.1388C1161.14 80.3727 1161.81 80.0608 1162.03 79.4422C1162.25 78.8236 1161.94 78.1333 1161.34 77.8994L1157.89 76.5601C1157.21 75.3842 1157.16 73.9753 1157.74 72.3671C1158.67 69.8194 1161.8 70.0268 1162.83 70.3001C1162.87 70.3133 1162.92 70.3203 1162.97 70.3284C1163.21 71.0529 1163.49 71.843 1163.75 72.3703C1163.89 72.6549 1164.12 72.8592 1164.39 72.9633C1164.68 73.0761 1165.01 73.0701 1165.31 72.9191C1165.88 72.6278 1166.11 71.9113 1165.83 71.3174C1165.44 70.5154 1164.86 68.6235 1164.66 67.9357C1164.34 66.6845 1163.97 64.3231 1165.05 62.7471C1165.8 61.6542 1167.2 61.0457 1169.21 60.9383C1174.38 60.6615 1180.39 59.7109 1180.99 54.7749C1181.09 53.9607 1181 53.2288 1180.8 52.5818C1183.09 53.7035 1185.58 55.5781 1185.23 58.3497C1184.95 60.5953 1183.36 62.3876 1182.35 63.2557C1181.67 63.8087 1179.59 65.2393 1177.95 65.3636C1177.31 65.4122 1176.83 65.9859 1176.89 66.6453C1176.92 67.125 1177.23 67.5182 1177.64 67.6777C1177.8 67.7375 1177.96 67.7648 1178.14 67.7515C1179.48 67.6503 1180.85 67.0294 1181.92 66.4156C1181.95 66.4331 1181.97 66.4527 1182 66.4681C1182.38 66.6736 1182.83 66.8528 1183.31 67.0429C1185.5 67.917 1187.04 68.7057 1186.89 70.913C1186.75 72.7638 1185.77 74.0597 1185.03 74.6731C1184.69 74.8988 1182.84 76.1036 1180.72 76.8404C1180.12 77.0521 1179.8 77.7313 1180.01 78.3577C1180.13 78.7112 1180.39 78.9725 1180.7 79.0949C1180.95 79.1894 1181.22 79.201 1181.49 79.1089C1182.54 78.7399 1183.53 78.2761 1184.34 77.8494C1184.42 77.9081 1184.51 77.9596 1184.61 78.002C1186.18 78.6793 1188.02 79.9674 1187.93 82.2586C1187.82 84.8982 1186.81 86.4588 1184.82 87.018Z" fill="#F3F3F3" fill-opacity="0.7"/>
<path d="M773.923 107.176C773.352 104.792 771.532 103.095 768.852 102.391C769.69 101.08 770.345 99.0219 769.845 96.6161C769.002 92.5553 765.295 92.1516 763.279 91.9427C764.246 90.3518 765.266 87.7911 764.855 85.1064C764.573 83.2601 763.423 80.7676 759.543 79.3808C757.227 78.553 754.732 78.4068 753.45 78.3933C752.824 78.3873 752.287 78.832 752.172 79.4507C752.057 80.0768 752.387 80.6928 752.975 80.949C753.869 81.3375 754.981 82.0895 755.195 83.4603C755.454 85.1273 754.764 87.3783 747.051 90.013C744.441 90.9047 742.78 92.3569 742.117 94.3288C741.336 96.6502 742.148 99.085 742.999 100.76C742.185 100.911 741.248 101.211 740.391 101.719C738.701 102.721 737.732 104.256 737.59 106.159C737.413 108.528 738.077 110.182 738.922 111.311C738.756 111.584 738.65 111.902 738.626 112.246L738.519 113.785C738.325 116.598 740.035 119.15 742.528 120.099L743.75 126.561L743.75 126.563L747.744 147.692C747.744 147.692 747.745 147.693 747.745 147.695L749.545 157.217C749.806 158.596 750.899 159.61 752.265 159.739C753.631 159.869 754.849 159.075 755.296 157.763L767.328 122.455C769.92 121.989 771.959 119.793 772.154 116.98L772.26 115.441C772.283 115.108 772.226 114.787 772.109 114.494C773.532 113.249 774.844 111.018 773.923 107.176ZM753.09 156.935C752.943 157.367 752.58 157.38 752.43 157.366C752.28 157.351 751.922 157.27 751.836 156.816L750.497 149.73C751.91 150.493 753.349 151.223 754.802 151.911L753.09 156.935ZM758.044 142.397C757.708 142.234 757.373 142.069 757.044 141.904C756.46 141.612 755.765 141.853 755.492 142.443C755.219 143.033 755.47 143.748 756.055 144.04C756.458 144.242 756.868 144.443 757.28 144.641L755.567 149.668C753.652 148.755 751.762 147.77 749.93 146.731L748.626 139.829C749.434 140.344 750.252 140.846 751.072 141.33C751.227 141.421 751.391 141.472 751.556 141.488C751.994 141.53 752.432 141.316 752.659 140.902C752.972 140.334 752.768 139.603 752.204 139.272C750.788 138.437 749.383 137.546 748.02 136.623L746.629 129.266C750.673 132.412 755.066 135.152 759.736 137.434L758.044 142.397ZM760.501 135.189C755.251 132.602 750.366 129.42 745.957 125.717L744.98 120.55L747.95 120.832C752.201 124.544 756.976 127.728 762.163 130.31L760.501 135.189ZM762.929 128.062C759.061 126.12 755.434 123.829 752.098 121.226L764.846 122.437L762.929 128.062ZM769.962 113.119L750.339 111.255C749.696 111.194 749.138 111.675 749.093 112.331C749.047 112.987 749.532 113.568 750.175 113.629L769.912 115.504L769.826 116.758C769.695 118.65 768.2 120.086 766.392 120.16L766.39 120.16C766.308 120.163 766.226 120.164 766.146 120.162C766.144 120.162 766.14 120.162 766.138 120.162C766.057 120.16 765.978 120.155 765.902 120.147L744.254 118.091C744.177 118.084 744.099 118.074 744.019 118.061C744.016 118.06 744.014 118.06 744.011 118.059C743.932 118.046 743.852 118.03 743.771 118.012C743.769 118.011 743.768 118.011 743.768 118.011C741.994 117.597 740.717 115.898 740.848 114.006L740.934 112.751L744.721 113.111C745.364 113.172 745.922 112.69 745.968 112.034C746.013 111.379 745.529 110.798 744.886 110.737L741.202 110.387C740.222 109.443 739.79 108.101 739.917 106.393C740.119 103.688 743.187 103.036 744.244 103.021C744.294 103.021 744.341 103.015 744.39 103.009C744.818 103.641 745.307 104.324 745.695 104.762C745.905 104.998 746.184 105.132 746.47 105.159C746.78 105.188 747.098 105.092 747.344 104.866C747.818 104.429 747.847 103.676 747.409 103.183C746.818 102.516 745.743 100.855 745.364 100.247C744.721 99.1285 743.717 96.9585 744.326 95.1482C744.748 93.8931 745.929 92.9266 747.836 92.2754C752.738 90.6011 758.265 88.0493 757.499 83.1362C757.373 82.326 757.086 81.6463 756.716 81.0786C759.226 81.5342 762.128 82.6614 762.55 85.4224C762.892 87.6596 761.852 89.8164 761.115 90.9271C760.612 91.6439 759.001 93.5866 757.453 94.1537C756.851 94.3746 756.548 95.0563 756.778 95.6766C756.945 96.1279 757.348 96.4225 757.787 96.4642C757.951 96.4798 758.12 96.4604 758.284 96.4001C759.547 95.9377 760.702 94.9656 761.557 94.0858C761.589 94.095 761.62 94.1067 761.652 94.1135C762.071 94.2086 762.554 94.2582 763.065 94.3111C765.415 94.5548 767.113 94.894 767.563 97.0606C767.94 98.8774 767.347 100.392 766.804 101.183C766.539 101.493 765.078 103.158 763.248 104.442C762.722 104.81 762.598 105.551 762.971 106.097C763.181 106.405 763.504 106.585 763.841 106.617C764.101 106.641 764.368 106.578 764.597 106.417C765.513 105.775 766.336 105.06 766.997 104.429C767.096 104.462 767.198 104.487 767.303 104.501C768.994 104.727 771.123 105.463 771.657 107.693C772.272 110.262 771.718 112.041 769.962 113.119Z" fill="#F3F3F3" fill-opacity="0.7"/>
<g clip-path="url(#clip1)">
<path d="M1317.76 43.4037L1314.96 42.7117L1315.12 38.7632C1315.15 37.8945 1314.56 37.1123 1313.72 36.903L1282.13 29.0811C1281.28 28.8717 1280.4 29.2887 1280.02 30.0727L1278.31 33.6368L1275.52 32.9449C1274.29 32.6393 1273.03 33.3926 1272.73 34.6241L1271.81 38.3166C1271.51 39.5482 1272.26 40.799 1273.5 41.1045L1274.6 41.3764L1274.14 45.8944C1273.92 45.9562 1273.72 46.0524 1273.53 46.1839C1273.05 46.5216 1272.74 47.0497 1272.68 47.6337L1269.62 77.7914C1269.54 78.6233 1269.98 79.4103 1270.7 79.7876L1270.27 84.0812C1270.1 85.7188 1271.18 87.2524 1272.78 87.6487L1294.65 93.0642C1296.25 93.4606 1297.92 92.6089 1298.54 91.0831L1300.16 87.0823C1300.97 87.0833 1301.73 86.5958 1302.05 85.8206L1313.41 57.7201C1313.63 57.1759 1313.61 56.5644 1313.34 56.0416C1313.23 55.8378 1313.1 55.6565 1312.93 55.5012L1314.64 51.2915L1315.74 51.5634C1316.97 51.869 1318.22 51.1153 1318.53 49.8837L1319.44 46.1912C1319.75 44.9596 1318.99 43.7092 1317.76 43.4037ZM1311.8 57.0697L1300.44 85.1701C1300.38 85.3035 1300.24 85.3775 1300.1 85.3429L1292.03 83.3457C1291.57 83.2305 1291.1 83.5135 1290.98 83.9783C1290.87 84.4431 1291.15 84.9129 1291.61 85.0281L1298.43 86.7169L1296.93 90.4331C1296.64 91.1639 1295.83 91.5721 1295.07 91.3822L1273.2 85.9668C1272.43 85.7769 1271.91 85.042 1271.99 84.2576L1272.4 80.2694L1287.69 84.057C1288.16 84.1723 1288.63 83.8893 1288.74 83.4245C1288.86 82.9597 1288.58 82.49 1288.11 82.3746L1271.57 78.2786C1271.43 78.244 1271.33 78.1106 1271.35 77.9674L1274.41 47.8097C1274.42 47.695 1274.49 47.6301 1274.53 47.6016C1274.57 47.5745 1274.65 47.5356 1274.75 47.5558C1274.76 47.5582 1274.77 47.56 1274.79 47.5621L1311.58 56.6739C1311.59 56.6776 1311.61 56.6813 1311.62 56.6846C1311.72 56.7152 1311.77 56.7867 1311.79 56.8287C1311.81 56.8729 1311.85 56.9628 1311.8 57.0697ZM1276.3 41.7981L1312.94 50.8699L1311.33 54.8272L1275.87 46.0451L1276.3 41.7981ZM1316.84 49.4663C1316.77 49.7705 1316.46 49.9564 1316.15 49.881L1273.92 39.4222C1273.61 39.3468 1273.42 39.0381 1273.5 38.7339L1274.41 35.0414C1274.49 34.7373 1274.8 34.5514 1275.1 34.6268L1282.64 36.4942C1283.11 36.6094 1283.58 36.3264 1283.69 35.8616C1283.81 35.3972 1283.53 34.9275 1283.06 34.8122L1280.03 34.063L1281.59 30.8215C1281.61 30.7754 1281.66 30.7507 1281.71 30.763L1313.3 38.5849C1313.35 38.5972 1313.38 38.6434 1313.38 38.6945L1313.24 42.2857L1286.98 35.7833C1286.52 35.668 1286.05 35.951 1285.93 36.4154C1285.82 36.8801 1286.1 37.3499 1286.57 37.4652L1317.34 45.0856C1317.64 45.161 1317.83 45.4697 1317.76 45.7738L1316.84 49.4663Z" fill="#F3F3F3" fill-opacity="0.7"/>
<path d="M1297.56 61.6104C1297.56 61.6033 1297.55 61.5966 1297.55 61.5894C1295.43 58.1288 1290.19 57.4394 1285.84 60.0576C1283.76 61.3083 1282.18 63.1244 1281.39 65.1714C1280.58 67.2938 1280.7 69.4116 1281.74 71.135C1281.74 71.1355 1281.74 71.1356 1281.74 71.1361C1281.75 71.1388 1281.75 71.1416 1281.75 71.1439C1282.63 72.594 1284.06 73.5999 1285.84 74.0413C1286.17 74.1229 1286.51 74.1848 1286.87 74.2274C1289.05 74.4889 1291.39 73.9434 1293.47 72.6927C1297.83 70.068 1299.67 65.0987 1297.57 61.6154C1297.56 61.6133 1297.56 61.6121 1297.56 61.6104ZM1283.01 65.793C1283.66 64.1044 1284.98 62.5949 1286.73 61.5418C1288.83 60.2804 1291.15 59.9175 1293.03 60.3834C1293.9 60.5976 1294.67 60.9876 1295.28 61.5454C1293.66 62.0339 1291.05 63.1402 1289.78 65.4208C1288.67 67.4034 1284.93 68.9781 1282.93 69.6418C1282.47 68.5004 1282.49 67.1591 1283.01 65.793ZM1292.58 71.2081C1290.83 72.2611 1288.87 72.7219 1287.07 72.5063C1285.8 72.3541 1284.72 71.8735 1283.94 71.1263C1285.96 70.4117 1289.91 68.7492 1291.3 66.2659C1292.43 64.2375 1295.14 63.3542 1296.35 63.0504C1297.47 65.6798 1295.88 69.2164 1292.58 71.2081Z" fill="#F3F3F3" fill-opacity="0.7"/>
</g>
<path d="M1021.37 28.4504C1021.86 27.3938 1021.5 26.1375 1020.52 25.5043C1018.69 24.3633 1016.67 23.5625 1014.55 23.1405C1013.89 21.8962 1012.9 20.8609 1011.68 20.1514C1008.06 17.8632 1001.82 15.6557 992.538 17.8852C989.241 14.5488 985.074 14.0358 980.817 15.6609C976.591 17.2819 971.783 21.4902 968.666 24.7762C966.677 26.8599 965.413 28.2763 966.081 30.9999C964.988 33.319 964.275 35.7988 963.969 38.3442C963.129 44.9339 965.593 51.5141 970.554 55.9316C972.829 60.8523 978.352 62.6558 983.786 62.6558C984.841 62.6397 985.895 62.5605 986.94 62.4187C987.278 62.5771 987.636 62.6883 988.004 62.7492C991.571 63.2874 999.125 62.4093 999.806 58.7885C1000.15 56.943 998.74 54.9758 995.515 52.7998C995.635 50.9586 995.047 49.1411 993.872 47.7186C994.554 47.2259 995.073 46.5394 995.36 45.7483C997.043 45.5107 998.486 44.425 999.18 42.8735C1002.4 43.7779 1004.96 43.4149 1006.4 40.4006C1009.22 41.4005 1012.64 40.8297 1015.39 39.6525C1018.2 41.272 1021.59 41.5813 1024.65 40.4992C1029.66 38.4953 1025.69 31.7396 1021.37 28.4504ZM966.043 38.7114C966.316 36.3688 966.963 34.0852 967.96 31.9474C971.781 30.0299 976.223 29.7681 980.243 31.2234C988.104 34.2031 992.655 43.3425 993.401 44.9404C993.214 45.5149 992.813 45.9956 992.282 46.2834C989.792 44.7561 987.115 43.5601 984.316 42.7256C975.713 39.8592 969.376 45.0632 969.554 51.6961C966.699 48.0095 965.434 43.3348 966.043 38.7114ZM983.276 60.5501C980.716 60.5081 974.541 59.8671 972.372 54.8793C969.505 48.2757 975.144 41.8789 983.652 44.7169C986.011 45.4437 988.29 46.4079 990.454 47.5948C992.537 48.8738 993.118 49.9786 993.33 51.5135C992.509 51.1692 991.599 51.1022 990.737 51.3226C987.855 52.1442 985.586 54.3714 984.712 57.2378C984.338 58.3156 984.425 59.5 984.953 60.5113C984.395 60.5556 983.836 60.5685 983.276 60.5501ZM997.747 58.4024C997.619 59.0865 996.371 60.0035 993.254 60.5228C991.628 60.8292 989.965 60.8805 988.323 60.675C987.717 60.5759 987.186 60.2144 986.871 59.6869C986.556 59.1595 986.491 58.5201 986.692 57.9397C987.332 55.7197 989.069 53.9851 991.29 53.3475C991.827 53.2171 992.395 53.3082 992.864 53.6003C997.691 56.4646 997.821 58.0006 997.747 58.4024ZM995.124 43.6688C991.261 35.6541 984.089 28.1745 975.111 28.1745C972.665 28.1995 970.248 28.6983 967.992 29.6434C968.01 28.5942 968.771 27.7108 969.928 26.4958C977.397 18.6647 986.571 12.2521 992.553 21.2205C998.043 29.4524 1000.39 42.7602 995.123 43.6688H995.124ZM999.865 40.8937C1001.22 34.6521 997.908 25.1665 994.039 19.6908C1002.05 18.0121 1007.42 19.9353 1010.57 21.9266C1011.28 22.3532 1011.9 22.9184 1012.39 23.5885C1008.89 25.575 1006.53 29.093 1006.03 33.0826C1005.82 34.9789 1005.43 36.851 1004.86 38.6736C1004.08 40.9011 1002.95 41.7603 999.864 40.8937H999.865ZM1007.13 38.4344C1007.57 36.7719 1007.89 35.0831 1008.11 33.3784C1008.55 29.8341 1010.73 26.7451 1013.93 25.1413C1015.85 25.5066 1017.7 26.2232 1019.37 27.2554C1019.54 27.3698 1019.56 27.6216 1019.29 27.7947C1017.55 29.0546 1016.24 30.8146 1015.53 32.8392C1014.77 34.427 1014.3 36.1393 1014.14 37.8941C1011.93 38.861 1009.46 39.0514 1007.13 38.4344H1007.13ZM1023.87 38.5509C1020.94 39.7249 1017.95 38.6233 1016.25 37.7367C1016.46 36.311 1016.87 34.9235 1017.48 33.6197C1017.98 32.222 1018.81 30.9664 1019.9 29.9623C1022.37 31.7281 1025.06 35.2743 1024.89 37.3066C1024.86 37.899 1024.45 38.4021 1023.87 38.5509H1023.87Z" fill="#F3F3F3" fill-opacity="0.7"/>
<path d="M987.341 19.3236C985.692 18.8003 983.909 18.8919 982.322 19.5817C980.385 20.4223 978.577 21.5314 976.95 22.8761C976.74 23.0398 976.53 23.2066 976.32 23.3766C975.971 23.6563 975.621 23.9477 975.271 24.2505C974.862 24.6352 974.828 25.2743 975.195 25.7C975.561 26.1258 976.198 26.1871 976.639 25.839C976.969 25.5543 977.3 25.2777 977.632 25.0091C977.83 24.8496 978.03 24.6943 978.232 24.5349C979.698 23.3188 981.325 22.3115 983.067 21.5415C984.173 21.0418 985.42 20.9504 986.587 21.2835C987.128 21.4906 987.735 21.2198 987.942 20.6786C988.149 20.1374 987.878 19.5307 987.337 19.3236H987.341Z" fill="#F3F3F3" fill-opacity="0.7"/>
<path d="M1018.08 42.6719C1016.05 42.6719 1014.41 44.3159 1014.41 46.344C1014.41 48.3721 1016.05 50.0161 1018.08 50.0161C1020.11 50.0161 1021.75 48.3721 1021.75 46.344C1021.75 44.3159 1020.11 42.6719 1018.08 42.6719ZM1018.08 47.9178C1017.21 47.9178 1016.51 47.2132 1016.51 46.344C1016.51 45.4748 1017.21 44.7702 1018.08 44.7702C1018.95 44.7702 1019.66 45.4748 1019.66 46.344C1019.66 47.2132 1018.95 47.9178 1018.08 47.9178Z" fill="#F3F3F3" fill-opacity="0.7"/>
<path d="M1011.26 45.8195C1011.84 45.8195 1012.31 45.3498 1012.31 44.7704C1012.31 44.1909 1011.84 43.7212 1011.26 43.7212C1010.68 43.7212 1010.21 44.1909 1010.21 44.7704C1010.21 45.3498 1010.68 45.8195 1011.26 45.8195Z" fill="#F3F3F3" fill-opacity="0.7"/>
<path d="M1007.07 46.8689C1007.65 46.8689 1008.11 46.3991 1008.11 45.8197C1008.11 45.2402 1007.65 44.7705 1007.07 44.7705C1006.49 44.7705 1006.02 45.2402 1006.02 45.8197C1006.02 46.3991 1006.49 46.8689 1007.07 46.8689Z" fill="#F3F3F3" fill-opacity="0.7"/>
<g clip-path="url(#clip2)">
<path d="M560.355 102.626L557.53 103.182L555.999 99.5385C555.662 98.7372 554.798 98.2777 553.944 98.4455L522.012 104.721C521.158 104.889 520.531 105.642 520.523 106.511L520.484 110.463L517.66 111.018C516.412 111.263 515.597 112.475 515.841 113.72L516.575 117.452C516.819 118.697 518.033 119.511 519.281 119.266L520.391 119.048L521.887 123.335C521.718 123.483 521.571 123.657 521.457 123.855C521.165 124.365 521.108 124.974 521.301 125.528L531.287 154.149C531.563 154.938 532.301 155.462 533.11 155.501L534.532 159.575C535.074 161.129 536.703 162.062 538.321 161.744L560.428 157.399C562.046 157.081 563.201 155.601 563.115 153.958L562.889 149.648C563.624 149.306 564.108 148.542 564.064 147.707L562.476 117.436C562.445 116.85 562.162 116.307 561.699 115.946C561.518 115.806 561.317 115.7 561.104 115.628L560.867 111.093L561.976 110.875C563.224 110.629 564.039 109.417 563.795 108.172L563.061 104.439C562.816 103.195 561.602 102.381 560.355 102.626ZM560.742 117.528L562.33 147.798C562.338 147.942 562.237 148.071 562.096 148.099L553.943 149.701C553.472 149.793 553.166 150.249 553.258 150.719C553.351 151.189 553.807 151.494 554.277 151.402L561.171 150.047L561.381 154.05C561.422 154.837 560.869 155.546 560.094 155.698L537.987 160.043C537.211 160.196 536.431 159.749 536.171 159.005L534.851 155.22L550.313 152.181C550.784 152.088 551.09 151.633 550.998 151.163C550.905 150.693 550.449 150.388 549.979 150.48L533.257 153.767C533.116 153.794 532.974 153.713 532.927 153.577L522.941 124.957C522.903 124.848 522.938 124.76 522.963 124.717C522.987 124.676 523.042 124.607 523.145 124.582C523.156 124.579 523.167 124.576 523.179 124.573L560.376 117.262C560.388 117.261 560.399 117.259 560.411 117.257C560.516 117.242 560.593 117.285 560.631 117.314C560.67 117.344 560.736 117.413 560.742 117.528ZM522.112 118.71L559.145 111.431L559.369 115.694L523.518 122.74L522.112 118.71ZM562.091 108.507C562.151 108.814 561.95 109.114 561.642 109.174L518.946 117.565C518.639 117.626 518.339 117.425 518.278 117.118L517.545 113.385C517.484 113.078 517.686 112.778 517.994 112.718L525.617 111.22C526.087 111.127 526.393 110.672 526.301 110.202C526.209 109.733 525.753 109.427 525.283 109.519L522.224 110.121L522.259 106.527C522.259 106.476 522.296 106.431 522.346 106.421L554.278 100.146C554.328 100.136 554.379 100.163 554.399 100.21L555.791 103.523L529.247 108.74C528.776 108.833 528.47 109.288 528.562 109.758C528.654 110.227 529.11 110.533 529.581 110.441L560.689 104.327C560.997 104.266 561.297 104.467 561.357 104.774L562.091 108.507Z" fill="#F3F3F3" fill-opacity="0.7"/>
<path d="M549.76 127.667C549.753 127.662 549.745 127.658 549.738 127.654C546.357 125.413 541.312 127.008 538.478 131.22C537.123 133.233 536.462 135.546 536.615 137.734C536.774 140.002 537.783 141.868 539.456 142.989C539.456 142.989 539.457 142.989 539.457 142.99C539.46 142.991 539.463 142.993 539.465 142.995C540.876 143.936 542.598 144.243 544.399 143.889C544.732 143.823 545.069 143.735 545.406 143.624C547.493 142.938 549.388 141.452 550.743 139.439C553.584 135.215 553.146 129.936 549.764 127.67C549.763 127.669 549.761 127.668 549.76 127.667ZM538.347 137.611C538.221 135.807 538.779 133.88 539.919 132.186C541.284 130.156 543.236 128.844 545.138 128.471C546.012 128.299 546.875 128.326 547.667 128.572C546.403 129.702 544.51 131.806 544.32 134.412C544.155 136.677 541.434 139.685 539.901 141.133C538.996 140.296 538.45 139.071 538.347 137.611ZM549.301 138.473C548.161 140.168 546.585 141.412 544.864 141.978C543.648 142.378 542.469 142.397 541.445 142.051C542.974 140.548 545.845 137.373 546.052 134.536C546.22 132.219 548.303 130.271 549.274 129.483C551.401 131.392 551.457 135.268 549.301 138.473Z" fill="#F3F3F3" fill-opacity="0.7"/>
</g>
<g clip-path="url(#clip3)">
<path d="M312.339 58.289C312.506 57.8572 312.636 57.4126 312.73 56.9596C312.761 56.8144 312.788 56.6634 312.81 56.5122C312.938 55.6649 312.937 54.8031 312.806 53.9563C312.421 51.4299 310.889 48.9676 308.493 47.0229C307.682 46.3663 306.81 45.7875 305.89 45.2941C306.033 45.0099 306.163 44.7181 306.279 44.4173C306.981 42.5927 307.191 40.4731 306.886 38.1937C306.491 35.2475 305.262 32.3005 303.333 29.6714C298.976 23.7301 292.144 20.9846 287.09 23.1428C286.221 23.5127 285.421 24.0263 284.723 24.6622C282.622 26.5745 281.537 29.5065 281.668 32.9175C281.796 36.2785 283.102 39.8123 285.343 42.868C286.005 43.771 286.741 44.6179 287.542 45.4C285.667 46.6002 284.236 48.2061 283.471 50.122C283.231 50.722 283.061 51.3475 282.964 51.9862C282.92 52.2795 282.891 52.5751 282.878 52.8716C282.751 55.7093 284.062 58.5471 286.572 60.8621C289.043 63.1428 292.468 64.7117 296.215 65.2794C303.632 66.4041 310.38 63.382 312.339 58.289ZM288.222 24.1194C290.223 23.471 292.602 23.636 295.001 24.6022C297.734 25.7028 300.318 27.779 302.275 30.4477C304.075 32.9002 305.219 35.639 305.585 38.3681C305.896 40.6927 305.6 42.8904 304.75 44.6389C303.324 40.0017 300.229 36.0578 296.064 33.5696C292.756 31.5893 290.156 28.6176 288.633 25.0762L288.222 24.1194ZM286.516 26.6292L285.959 25.3329C286.034 25.2737 286.109 25.2145 286.187 25.157C286.451 24.964 286.727 24.7893 287.014 24.6343L287.427 25.5946C289.059 29.3896 291.845 32.5741 295.39 34.6959C298.991 36.8474 301.744 40.171 303.187 44.11C302.685 43.9359 302.172 43.7811 301.648 43.6458C299.989 40.1002 297.307 37.1318 293.948 35.1224C290.635 33.1483 288.033 30.1748 286.516 26.6292ZM286.402 42.0918C282.425 36.6716 281.872 29.9724 284.952 26.3139L285.311 27.1477C286.936 30.947 289.724 34.1333 293.273 36.2486C296.111 37.9455 298.436 40.3793 300.001 43.2916C299.854 43.2663 299.707 43.2418 299.56 43.2194C295.562 42.6134 291.721 43.2143 288.732 44.7231C287.875 43.9201 287.095 43.0392 286.402 42.0918ZM285.93 50.3924L284.962 50.0086C285.915 48.1333 287.711 46.564 290.088 45.546C292.797 44.3861 296.091 44.0207 299.363 44.5167C302.505 44.9933 305.454 46.2453 307.667 48.0414C309.36 49.4162 310.567 51.0612 311.164 52.7786C306.872 50.5168 301.894 49.9264 297.192 51.1215C293.516 52.059 289.64 51.8277 286.102 50.4598C286.045 50.4379 285.989 50.4158 285.93 50.3924ZM285.537 52.9877L284.225 52.4685C284.235 52.3733 284.247 52.2782 284.262 52.1834C284.311 51.8603 284.382 51.5409 284.475 51.2276L285.446 51.612C285.508 51.6369 285.569 51.6605 285.631 51.6845C289.422 53.1503 293.576 53.3982 297.514 52.3936C301.961 51.2633 306.67 51.8442 310.709 54.0212L311.551 54.4738C311.599 54.9149 311.606 55.3595 311.572 55.8019L310.937 55.4608C310.208 55.0694 309.456 54.7241 308.684 54.427C304.892 52.9603 300.738 52.7122 296.799 53.7169C293.062 54.6711 289.119 54.4156 285.537 52.9877ZM284.21 53.8745L285.054 54.2084C288.892 55.7384 293.117 56.0117 297.121 54.9893C300.797 54.0516 304.674 54.2831 308.212 55.6515C308.933 55.9289 309.635 56.2513 310.315 56.6167L311.331 57.1626C310.698 59.4223 308.954 61.3541 306.367 62.6388C303.529 64.0479 299.994 64.5248 296.412 63.9816C289.765 62.9747 284.629 58.6395 284.21 53.8745Z" fill="#F3F3F3" fill-opacity="0.7"/>
<path d="M287.266 38.2526C287.326 38.0979 287.325 37.9263 287.263 37.7725C287.123 37.4236 286.996 37.0646 286.885 36.7055C286.86 36.6231 286.818 36.5465 286.763 36.4801C286.709 36.4138 286.641 36.3588 286.565 36.3185C286.489 36.2782 286.405 36.2533 286.319 36.2453C286.234 36.2372 286.147 36.2461 286.065 36.2714C285.982 36.2968 285.906 36.3381 285.839 36.3931C285.773 36.4481 285.718 36.5155 285.678 36.5917C285.638 36.6679 285.613 36.7513 285.605 36.8371C285.596 36.9229 285.605 37.0094 285.631 37.0918C285.752 37.4854 285.891 37.879 286.045 38.2619C286.094 38.3843 286.179 38.489 286.288 38.5624C286.398 38.6358 286.527 38.6746 286.659 38.6736C286.79 38.6727 286.919 38.632 287.027 38.557C287.136 38.4819 287.219 38.376 287.266 38.2529L287.266 38.2526Z" fill="#F3F3F3" fill-opacity="0.7"/>
<path d="M289.823 42.8296C289.887 42.7714 289.938 42.7012 289.975 42.6231C290.011 42.545 290.032 42.4605 290.035 42.3744C290.039 42.2883 290.026 42.2023 289.996 42.1213C289.967 42.0404 289.922 41.966 289.863 41.9025C289.229 41.2104 288.668 40.4546 288.189 39.6474C288.145 39.5721 288.087 39.5063 288.018 39.4536C287.949 39.4009 287.87 39.3624 287.786 39.3404C287.702 39.3184 287.615 39.3133 287.529 39.3254C287.443 39.3375 287.36 39.3666 287.285 39.4109C287.211 39.4552 287.145 39.5139 287.094 39.5836C287.042 39.6533 287.004 39.7326 286.983 39.8168C286.962 39.9011 286.958 39.9887 286.971 40.0746C286.985 40.1605 287.015 40.2428 287.06 40.317C287.585 41.2021 288.201 42.0307 288.896 42.7894C289.014 42.9177 289.177 42.9939 289.351 43.0015C289.525 43.009 289.695 42.9472 289.823 42.8296Z" fill="#F3F3F3" fill-opacity="0.7"/>
<path d="M304.28 61.9965C304.445 61.9384 304.579 61.8176 304.654 61.6605C304.729 61.5034 304.738 61.3229 304.68 61.1588C304.622 60.9947 304.501 60.8604 304.344 60.7854C304.187 60.7104 304.007 60.7009 303.843 60.759C303.488 60.8844 303.124 60.9966 302.761 61.092C302.592 61.1362 302.448 61.2455 302.361 61.3958C302.273 61.5461 302.248 61.7251 302.293 61.8935C302.337 62.0618 302.446 62.2057 302.596 62.2934C302.747 62.3812 302.926 62.4057 303.094 62.3614C303.493 62.2565 303.892 62.1338 304.28 61.9965Z" fill="#F3F3F3" fill-opacity="0.7"/>
<path d="M306.376 61.0682C307.283 60.5803 308.136 60.0002 308.923 59.3371C308.99 59.2816 309.044 59.2137 309.084 59.1371C309.124 59.0605 309.148 58.9768 309.156 58.8907C309.163 58.8047 309.154 58.7181 309.128 58.6357C309.102 58.5534 309.06 58.4771 309.004 58.411C308.948 58.345 308.88 58.2906 308.803 58.251C308.727 58.2113 308.643 58.1872 308.557 58.18C308.471 58.1728 308.384 58.1826 308.302 58.209C308.22 58.2353 308.143 58.2776 308.078 58.3335C307.36 58.9383 306.581 59.4675 305.754 59.9126C305.603 59.9958 305.49 60.1357 305.441 60.3017C305.392 60.4678 305.41 60.6465 305.492 60.7989C305.574 60.9514 305.713 61.0653 305.879 61.1157C306.044 61.1662 306.223 61.1491 306.376 61.0683L306.376 61.0682Z" fill="#F3F3F3" fill-opacity="0.7"/>
</g>
<g clip-path="url(#clip4)">
<path d="M1068.48 152.43C1068.65 151.998 1068.78 151.554 1068.87 151.101C1068.9 150.955 1068.93 150.805 1068.95 150.653C1069.08 149.806 1069.08 148.944 1068.95 148.097C1068.56 145.571 1067.03 143.109 1064.63 141.164C1063.82 140.507 1062.95 139.929 1062.03 139.435C1062.17 139.151 1062.3 138.859 1062.42 138.558C1063.12 136.734 1063.33 134.614 1063.03 132.335C1062.63 129.389 1061.4 126.442 1059.47 123.813C1055.12 117.871 1048.28 115.126 1043.23 117.284C1042.36 117.654 1041.56 118.167 1040.86 118.803C1038.76 120.716 1037.68 123.648 1037.81 127.059C1037.94 130.42 1039.24 133.953 1041.48 137.009C1042.15 137.912 1042.88 138.759 1043.68 139.541C1041.81 140.741 1040.38 142.347 1039.61 144.263C1039.37 144.863 1039.2 145.489 1039.11 146.127C1039.06 146.421 1039.03 146.716 1039.02 147.013C1038.89 149.85 1040.2 152.688 1042.71 155.003C1045.18 157.284 1048.61 158.853 1052.36 159.421C1059.77 160.545 1066.52 157.523 1068.48 152.43ZM1044.36 118.261C1046.36 117.612 1048.74 117.777 1051.14 118.743C1053.88 119.844 1056.46 121.92 1058.42 124.589C1060.22 127.041 1061.36 129.78 1061.73 132.509C1062.04 134.834 1061.74 137.032 1060.89 138.78C1059.46 134.143 1056.37 130.199 1052.2 127.711C1048.9 125.73 1046.3 122.759 1044.77 119.217L1044.36 118.261ZM1042.66 120.77L1042.1 119.474C1042.17 119.415 1042.25 119.356 1042.33 119.298C1042.59 119.105 1042.87 118.93 1043.16 118.775L1043.57 119.736C1045.2 123.531 1047.99 126.715 1051.53 128.837C1055.13 130.989 1057.88 134.312 1059.33 138.251C1058.83 138.077 1058.31 137.922 1057.79 137.787C1056.13 134.241 1053.45 131.273 1050.09 129.264C1046.78 127.289 1044.17 124.316 1042.66 120.77ZM1042.54 136.233C1038.57 130.813 1038.01 124.113 1041.09 120.455L1041.45 121.289C1043.08 125.088 1045.86 128.274 1049.41 130.39C1052.25 132.087 1054.58 134.52 1056.14 137.433C1056 137.407 1055.85 137.383 1055.7 137.361C1051.7 136.754 1047.86 137.355 1044.87 138.864C1044.02 138.061 1043.24 137.18 1042.54 136.233ZM1042.07 144.533L1041.1 144.15C1042.06 142.274 1043.85 140.705 1046.23 139.687C1048.94 138.527 1052.23 138.162 1055.5 138.658C1058.65 139.134 1061.6 140.386 1063.81 142.183C1065.5 143.557 1066.71 145.202 1067.31 146.92C1063.01 144.658 1058.03 144.068 1053.33 145.263C1049.66 146.2 1045.78 145.969 1042.24 144.601C1042.19 144.579 1042.13 144.557 1042.07 144.533ZM1041.68 147.129L1040.37 146.61C1040.38 146.514 1040.39 146.419 1040.4 146.325C1040.45 146.001 1040.52 145.682 1040.62 145.369L1041.59 145.753C1041.65 145.778 1041.71 145.802 1041.77 145.826C1045.56 147.291 1049.72 147.539 1053.66 146.535C1058.1 145.404 1062.81 145.985 1066.85 148.162L1067.69 148.615C1067.74 149.056 1067.75 149.501 1067.71 149.943L1067.08 149.602C1066.35 149.211 1065.6 148.865 1064.82 148.568C1061.03 147.101 1056.88 146.853 1052.94 147.858C1049.2 148.812 1045.26 148.557 1041.68 147.129ZM1040.35 148.016L1041.19 148.35C1045.03 149.879 1049.26 150.153 1053.26 149.13C1056.94 148.193 1060.81 148.424 1064.35 149.793C1065.07 150.07 1065.78 150.392 1066.46 150.758L1067.47 151.304C1066.84 153.563 1065.09 155.495 1062.51 156.78C1059.67 158.189 1056.13 158.666 1052.55 158.123C1045.91 157.116 1040.77 152.781 1040.35 148.016Z" fill="#F3F3F3" fill-opacity="0.7"/>
<path d="M1043.41 132.394C1043.47 132.239 1043.47 132.067 1043.4 131.914C1043.26 131.565 1043.14 131.206 1043.03 130.847C1043 130.764 1042.96 130.688 1042.9 130.621C1042.85 130.555 1042.78 130.5 1042.71 130.46C1042.63 130.419 1042.55 130.394 1042.46 130.386C1042.37 130.378 1042.29 130.387 1042.21 130.413C1042.12 130.438 1042.05 130.479 1041.98 130.534C1041.91 130.589 1041.86 130.657 1041.82 130.733C1041.78 130.809 1041.75 130.892 1041.75 130.978C1041.74 131.064 1041.75 131.151 1041.77 131.233C1041.89 131.626 1042.03 132.02 1042.19 132.403C1042.23 132.525 1042.32 132.63 1042.43 132.704C1042.54 132.777 1042.67 132.816 1042.8 132.815C1042.93 132.814 1043.06 132.773 1043.17 132.698C1043.28 132.623 1043.36 132.517 1043.41 132.394L1043.41 132.394Z" fill="#F3F3F3" fill-opacity="0.7"/>
<path d="M1045.96 136.971C1046.03 136.912 1046.08 136.842 1046.12 136.764C1046.15 136.686 1046.17 136.602 1046.18 136.516C1046.18 136.429 1046.17 136.343 1046.14 136.262C1046.11 136.181 1046.06 136.107 1046 136.044C1045.37 135.351 1044.81 134.596 1044.33 133.788C1044.29 133.713 1044.23 133.647 1044.16 133.595C1044.09 133.542 1044.01 133.504 1043.93 133.482C1043.84 133.46 1043.76 133.454 1043.67 133.467C1043.58 133.479 1043.5 133.508 1043.43 133.552C1043.35 133.596 1043.29 133.655 1043.23 133.725C1043.18 133.794 1043.15 133.874 1043.12 133.958C1043.1 134.042 1043.1 134.13 1043.11 134.216C1043.13 134.302 1043.16 134.384 1043.2 134.458C1043.73 135.343 1044.34 136.172 1045.04 136.931C1045.15 137.059 1045.32 137.135 1045.49 137.143C1045.67 137.15 1045.84 137.088 1045.96 136.971Z" fill="#F3F3F3" fill-opacity="0.7"/>
<path d="M1060.42 156.138C1060.59 156.08 1060.72 155.959 1060.79 155.802C1060.87 155.644 1060.88 155.464 1060.82 155.3C1060.76 155.136 1060.64 155.002 1060.48 154.927C1060.33 154.852 1060.15 154.842 1059.98 154.9C1059.63 155.026 1059.26 155.138 1058.9 155.233C1058.73 155.277 1058.59 155.387 1058.5 155.537C1058.41 155.687 1058.39 155.866 1058.43 156.035C1058.48 156.203 1058.59 156.347 1058.74 156.435C1058.89 156.522 1059.07 156.547 1059.23 156.503C1059.63 156.398 1060.03 156.275 1060.42 156.138Z" fill="#F3F3F3" fill-opacity="0.7"/>
<path d="M1062.52 155.209C1063.42 154.721 1064.28 154.141 1065.06 153.478C1065.13 153.423 1065.19 153.355 1065.22 153.278C1065.26 153.202 1065.29 153.118 1065.3 153.032C1065.3 152.946 1065.29 152.859 1065.27 152.777C1065.24 152.695 1065.2 152.618 1065.14 152.552C1065.09 152.486 1065.02 152.432 1064.94 152.392C1064.87 152.352 1064.78 152.328 1064.7 152.321C1064.61 152.314 1064.52 152.324 1064.44 152.35C1064.36 152.376 1064.28 152.419 1064.22 152.475C1063.5 153.079 1062.72 153.609 1061.9 154.054C1061.74 154.137 1061.63 154.277 1061.58 154.443C1061.53 154.609 1061.55 154.788 1061.63 154.94C1061.72 155.093 1061.85 155.206 1062.02 155.257C1062.19 155.307 1062.36 155.29 1062.52 155.209L1062.52 155.209Z" fill="#F3F3F3" fill-opacity="0.7"/>
</g>
<g clip-path="url(#clip5)">
<path d="M690.833 32.1947C690.574 31.8111 690.285 31.4493 689.967 31.1128C689.866 31.0046 689.758 30.8959 689.647 30.7906C689.026 30.2003 688.319 29.7076 687.55 29.3294C685.258 28.1983 682.362 28.0428 679.396 28.8918C678.393 29.1809 677.419 29.5637 676.487 30.035C676.336 29.7554 676.172 29.4811 675.992 29.2138C674.899 27.593 673.282 26.2065 671.238 25.1508C668.597 23.7864 665.478 23.1046 662.218 23.1793C654.852 23.3467 648.688 27.3728 647.561 32.7517C647.366 33.6755 647.329 34.6255 647.45 35.5617C647.814 38.3793 649.595 40.9486 652.465 42.796C655.294 44.6164 658.938 45.5711 662.727 45.4846C663.846 45.4595 664.962 45.342 666.062 45.1334C665.971 47.3577 666.467 49.4509 667.599 51.1758C667.953 51.7159 668.369 52.2135 668.837 52.6589C669.052 52.8636 669.277 53.0564 669.513 53.2365C671.766 54.967 674.843 55.518 678.178 54.7879C681.463 54.0694 684.711 52.1611 687.324 49.4154C692.495 43.9805 693.884 36.7191 690.833 32.1947ZM649.01 32.3837C649.625 30.3719 651.123 28.5163 653.29 27.1038C655.758 25.4943 658.94 24.5663 662.248 24.4913C665.289 24.4217 668.19 25.0529 670.636 26.3168C672.72 27.3934 674.351 28.8959 675.297 30.594C670.679 29.1061 665.674 29.3829 661.248 31.3708C657.73 32.9471 653.805 33.3752 650.03 32.5945L649.01 32.3837ZM650.09 35.2192L648.708 34.9333C648.702 34.8383 648.697 34.7421 648.694 34.6455C648.687 34.3191 648.702 33.9925 648.74 33.6681L649.763 33.88C653.809 34.7167 658.015 34.2579 661.785 32.5687C665.612 30.8498 669.913 30.498 673.968 31.5722C673.538 31.8837 673.117 32.2155 672.706 32.5676C668.849 31.8958 664.88 32.3929 661.308 33.995C657.792 35.5791 653.865 36.0077 650.09 35.2192ZM662.697 44.1727C655.976 44.3262 650.169 40.9409 648.935 36.3204L649.824 36.5043C653.869 37.3492 658.078 36.89 661.845 35.1927C664.862 33.8393 668.188 33.3284 671.472 33.7143C671.367 33.8199 671.263 33.9263 671.16 34.0346C668.373 36.9635 666.665 40.4558 666.188 43.7706C665.04 44.0124 663.871 44.147 662.697 44.1727ZM669.23 49.3147L668.36 49.8886C667.37 48.033 667.113 45.6617 667.64 43.1303C668.241 40.2457 669.829 37.3366 672.111 34.9389C674.302 32.6367 677.017 30.9372 679.757 30.1531C681.854 29.5532 683.893 29.5064 685.644 30.0005C681.331 32.2224 677.994 35.9643 676.28 40.5029C674.942 44.0524 672.532 47.0967 669.384 49.2125C669.333 49.2467 669.283 49.2802 669.23 49.3147ZM671.132 51.1241L669.954 51.902C669.882 51.8389 669.811 51.7746 669.742 51.7084C669.505 51.483 669.284 51.2416 669.081 50.9858L669.952 50.4109C670.008 50.3743 670.062 50.3375 670.118 50.3002C673.491 48.033 676.074 44.7708 677.507 40.9673C679.129 36.6753 682.303 33.1487 686.401 31.086L687.254 30.6553C687.643 30.8685 688.012 31.1174 688.355 31.3987L687.711 31.7238C686.973 32.0967 686.259 32.5155 685.573 32.9777C682.199 35.2451 679.615 38.5079 678.182 42.3122C676.823 45.9213 674.354 49.0062 671.132 51.1241ZM671.098 52.7201L671.855 52.2198C675.308 49.9503 677.953 46.6443 679.409 42.777C680.747 39.2268 683.158 36.1819 686.307 34.066C686.947 33.6346 687.613 33.2437 688.302 32.8958L689.332 32.376C690.822 34.1889 691.405 36.7258 690.976 39.5819C690.505 42.715 688.87 45.8858 686.373 48.5105C681.739 53.381 675.243 55.1068 671.098 52.7201Z" fill="#F3F3F3" fill-opacity="0.7"/>
<path d="M660.046 41.264C659.953 41.1264 659.812 41.0291 659.65 40.9918C659.284 40.9068 658.917 40.8053 658.559 40.6901C658.477 40.6637 658.391 40.6537 658.305 40.6607C658.219 40.6677 658.135 40.6916 658.059 40.7309C657.982 40.7703 657.914 40.8243 657.858 40.89C657.802 40.9557 657.76 41.0317 657.734 41.1138C657.707 41.1958 657.697 41.2823 657.704 41.3682C657.711 41.4541 657.735 41.5377 657.774 41.6144C657.814 41.6911 657.868 41.7593 657.933 41.815C657.999 41.8708 658.075 41.9131 658.157 41.9395C658.549 42.0659 658.952 42.177 659.353 42.2706C659.482 42.3004 659.616 42.2909 659.739 42.2432C659.862 42.1956 659.968 42.112 660.043 42.0034C660.117 41.8948 660.158 41.7662 660.158 41.6344C660.159 41.5026 660.12 41.3736 660.046 41.2643L660.046 41.264Z" fill="#F3F3F3" fill-opacity="0.7"/>
<path d="M665.262 41.7912C665.25 41.7057 665.222 41.6233 665.179 41.5487C665.136 41.4741 665.079 41.4087 665.01 41.3563C664.942 41.3039 664.864 41.2655 664.781 41.2433C664.697 41.2211 664.61 41.2156 664.525 41.2269C663.594 41.3502 662.653 41.3772 661.717 41.3075C661.631 41.2999 661.543 41.3096 661.461 41.336C661.378 41.3624 661.301 41.405 661.235 41.4613C661.169 41.5175 661.115 41.5864 661.075 41.6638C661.036 41.7412 661.012 41.8257 661.006 41.9123C660.999 41.9989 661.01 42.0859 661.038 42.1684C661.065 42.2508 661.108 42.3269 661.166 42.3924C661.223 42.4579 661.292 42.5114 661.37 42.5498C661.448 42.5882 661.533 42.6108 661.619 42.6162C662.646 42.6928 663.677 42.6632 664.698 42.528C664.87 42.505 665.026 42.4145 665.132 42.2764C665.238 42.1382 665.285 41.9637 665.262 41.7912Z" fill="#F3F3F3" fill-opacity="0.7"/>
<path d="M689.254 40.9241C689.3 40.7563 689.278 40.577 689.193 40.4255C689.107 40.274 688.964 40.1629 688.797 40.1164C688.629 40.07 688.449 40.0921 688.298 40.1779C688.146 40.2637 688.035 40.4062 687.989 40.574C687.889 40.9364 687.772 41.2991 687.642 41.6515C687.582 41.8148 687.589 41.9953 687.662 42.1534C687.735 42.3114 687.867 42.4341 688.031 42.4943C688.194 42.5545 688.374 42.5473 688.533 42.4744C688.691 42.4015 688.813 42.2688 688.873 42.1055C689.016 41.7187 689.144 41.3212 689.254 40.9241Z" fill="#F3F3F3" fill-opacity="0.7"/>
<path d="M689.694 38.6744C689.814 37.652 689.827 36.62 689.735 35.5949C689.727 35.5089 689.703 35.4252 689.663 35.3486C689.623 35.272 689.568 35.2041 689.502 35.1487C689.436 35.0933 689.359 35.0515 689.277 35.0257C689.194 34.9999 689.108 34.9906 689.022 34.9984C688.936 35.0062 688.852 35.0308 688.776 35.071C688.699 35.1112 688.631 35.166 688.576 35.2324C688.521 35.2988 688.479 35.3754 688.454 35.4579C688.428 35.5404 688.419 35.6271 688.427 35.7131C688.512 36.6481 688.5 37.5894 688.391 38.5218C688.372 38.694 688.422 38.8665 688.53 39.0019C688.638 39.1373 688.795 39.2246 688.967 39.2447C689.139 39.2648 689.312 39.2161 689.448 39.1093C689.584 39.0024 689.673 38.8461 689.694 38.6743L689.694 38.6744Z" fill="#F3F3F3" fill-opacity="0.7"/>
</g>
<g clip-path="url(#clip6)">
<path d="M152.375 42.5674L151.67 42.3172C152.695 34.871 152.812 25.458 150.18 20.2185C147.958 15.7947 144.255 12.5646 139.753 11.1234C135.333 9.70843 130.528 10.1197 126.224 12.2815C121.952 14.4272 118.752 18.1647 117.276 22.6697C112.614 20.999 108.229 21.3197 103.59 23.6499C99.3212 25.7938 96.1441 29.451 94.6436 33.9477C93.1377 38.4613 93.4961 43.3119 95.6527 47.6057C98.3087 52.8938 106.113 58.4321 112.877 62.0528L112.431 63.463C111.644 65.9507 113.019 68.6421 115.496 69.4627C116.751 69.8787 118.059 69.7451 119.156 69.1937C120.254 68.6426 121.141 67.6737 121.557 66.4191L121.696 66.002C123.581 66.6668 125.281 67.1299 126.761 67.3806C131.231 68.1378 135.753 67.5836 139.184 65.8603C139.21 65.8476 139.235 65.8348 139.26 65.822C142.643 64.0975 145.745 60.797 147.769 56.7665C148.437 55.4359 149.063 53.8067 149.636 51.9114L149.681 51.9266C150.897 52.3297 152.197 52.2349 153.342 51.6598C154.487 51.0848 155.339 50.0984 155.742 48.8823C156.577 46.3645 155.185 43.7179 152.432 42.5893C152.413 42.5815 152.394 42.5744 152.375 42.5674ZM97.9191 46.4674C94.1304 38.9242 97.1849 29.7049 104.728 25.9162C108.73 23.9063 112.508 23.6389 116.527 25.0971L115.031 29.9509C112.216 28.8634 109.851 29.0196 107.005 30.4488C101.875 33.0253 99.8755 39.0615 102.452 44.1908C103.676 46.6283 107.955 50.3111 113.352 53.5736C113.965 53.944 114.588 54.3063 115.212 54.6577L113.654 59.5908C105.974 55.4254 99.8742 50.36 97.9191 46.4674ZM115.993 52.1853C115.547 51.9295 115.103 51.6683 114.664 51.403C108.99 47.9734 105.531 44.6702 104.718 43.0525C102.78 39.1939 104.285 34.6533 108.143 32.7153C110.508 31.5276 112.19 31.4712 114.567 32.5012C114.509 34.0283 114.843 35.5522 115.562 36.9443C116.453 38.6703 117.85 40.0338 119.565 40.877L115.993 52.1853ZM116.294 67.0552C115.126 66.6685 114.479 65.4003 114.85 64.2274L115.54 62.042C115.545 62.0334 115.55 62.0254 115.554 62.0167C115.627 61.8759 115.669 61.7277 115.686 61.579L122.334 40.5306L122.335 40.528L122.335 40.5254L124.631 33.1437C124.839 32.4749 124.466 31.7643 123.797 31.5563C123.128 31.3483 122.417 31.7218 122.209 32.3906L120.336 38.4139C117.789 36.9449 116.488 33.8341 117.384 30.9274L119.212 24.9962C119.22 24.9824 119.227 24.9681 119.234 24.9539C119.247 24.9304 119.259 24.907 119.27 24.8827C119.272 24.8781 119.274 24.8739 119.276 24.8693C119.281 24.8572 119.285 24.8449 119.29 24.8327C119.299 24.8106 119.307 24.7886 119.315 24.7658C119.322 24.7436 119.328 24.7214 119.335 24.6991C119.338 24.686 119.343 24.6736 119.346 24.6603C119.409 24.4005 119.478 24.1433 119.553 23.8886L119.617 23.6823L119.618 23.6793C120.851 19.7165 123.629 16.4234 127.363 14.5481C135.162 10.631 143.997 13.5583 147.914 21.3572C149.848 25.2087 150.34 32.9823 149.228 41.4514L144.332 39.7143C144.399 39.1231 144.46 38.5291 144.512 37.9385C145.059 31.7055 144.615 26.0905 143.381 23.6337C142.101 21.0851 140.01 19.2224 137.494 18.3886C134.977 17.5549 132.188 17.8007 129.639 19.0808C126.951 20.4308 125.003 22.8798 124.288 25.8045L123.789 27.4221C123.582 28.0914 123.957 28.8013 124.626 29.0078C125.216 29.1899 125.838 28.9195 126.118 28.3944C127.243 28.931 128.162 29.8071 128.76 30.9339C129.52 32.3659 129.656 34.0014 129.143 35.5402L119.15 65.6205C118.758 66.8037 117.477 67.4473 116.294 67.0552ZM131.827 35.2784C132.196 33.3988 131.915 31.4692 131 29.7453C130.085 28.0198 128.643 26.7044 126.878 25.9559C127.497 23.9551 128.895 22.2921 130.778 21.3468C134.765 19.3442 139.112 20.7846 141.115 24.7718C141.938 26.4099 142.561 31.1594 141.985 37.7166C141.953 38.0912 141.916 38.4672 141.876 38.843L131.827 35.2784ZM128.719 44.8624L140.016 48.6696C139.59 50.1215 139.134 51.356 138.703 52.2138C137.926 53.761 136.581 55.8156 134.588 56.817C132.618 57.806 130.166 57.6683 128.455 57.3785C127.523 57.2207 126.285 56.8695 124.895 56.3728L128.719 44.8624ZM145.502 55.6283C143.716 59.1862 141.021 62.0781 138.108 63.5623C138.087 63.5732 138.066 63.5838 138.045 63.5946C135.087 65.0802 131.133 65.5489 127.185 64.88C125.856 64.6549 124.252 64.214 122.496 63.5942L124.095 58.7803C125.612 59.3205 126.957 59.6968 128.032 59.8788C130.116 60.232 133.143 60.3804 135.726 59.0831C138.34 57.7699 140.021 55.2415 140.97 53.3517C141.463 52.3691 141.958 51.0458 142.421 49.48L147.23 51.1007C146.696 52.8781 146.105 54.4276 145.502 55.6283ZM153.335 48.0847C153.145 48.6577 152.743 49.1225 152.204 49.3935C151.664 49.6645 151.052 49.7091 150.485 49.5213L129.518 42.4557L131.095 37.7098L142.535 41.768L142.54 41.7698L151.496 44.947C153.01 45.5785 153.748 46.8365 153.335 48.0847Z" fill="#F3F3F3" fill-opacity="0.7"/>
</g>
<g clip-path="url(#clip7)">
<path d="M916.106 154.442L915.793 153.762C921.843 149.301 928.667 142.817 930.584 137.276C932.203 132.597 931.933 127.691 929.824 123.46C927.754 119.307 924.107 116.152 919.555 114.577C915.037 113.014 910.127 113.329 905.87 115.416C903.813 110.91 900.525 107.993 895.618 106.295C891.104 104.733 886.267 105.009 881.999 107.072C877.715 109.143 874.49 112.784 872.919 117.325C870.984 122.917 872.462 132.372 874.588 139.743L873.267 140.408C870.936 141.58 869.967 144.443 871.108 146.79C871.686 147.979 872.694 148.823 873.854 149.224C875.015 149.626 876.328 149.586 877.517 149.008L877.913 148.816C878.752 150.631 879.606 152.172 880.459 153.407C883.036 157.137 886.588 159.99 890.217 161.245C890.243 161.255 890.27 161.264 890.297 161.273C893.893 162.493 898.421 162.412 902.721 161.05C904.14 160.6 905.744 159.912 907.501 158.999L907.522 159.042C908.082 160.195 909.057 161.06 910.268 161.479C911.478 161.898 912.78 161.82 913.932 161.26C916.318 160.101 917.242 157.257 916.131 154.498C916.123 154.479 916.115 154.461 916.106 154.442ZM875.316 118.154C878.076 110.177 886.812 105.932 894.789 108.692C899.021 110.156 901.848 112.676 903.608 116.572L899.087 118.887C897.903 116.112 896.14 114.527 893.131 113.486C887.706 111.609 881.986 114.388 880.11 119.812C879.218 122.39 879.565 128.025 880.994 134.167C881.156 134.865 881.331 135.564 881.515 136.257L876.895 138.583C874.519 130.174 873.892 122.27 875.316 118.154ZM883.831 135.091C883.703 134.593 883.58 134.092 883.464 133.593C881.962 127.135 881.915 122.352 882.506 120.642C883.918 116.561 888.221 114.47 892.301 115.882C894.802 116.748 896.016 117.913 896.937 120.334C895.803 121.359 894.944 122.661 894.448 124.147C893.833 125.99 893.831 127.942 894.424 129.759L883.831 135.091ZM873.389 145.681C872.852 144.575 873.308 143.227 874.407 142.674L876.454 141.643C876.464 141.641 876.473 141.639 876.482 141.636C876.634 141.59 876.769 141.517 876.888 141.425L896.604 131.501L896.607 131.5L896.609 131.498L903.499 127.992C904.123 127.675 904.371 126.911 904.054 126.287C903.736 125.663 902.973 125.414 902.348 125.732L896.727 128.593C896.002 125.743 897.322 122.64 900.029 121.254L905.554 118.425C905.569 118.421 905.585 118.417 905.6 118.412C905.625 118.404 905.65 118.397 905.675 118.388C905.68 118.386 905.685 118.385 905.69 118.383C905.702 118.378 905.713 118.372 905.725 118.367C905.747 118.358 905.769 118.349 905.791 118.338C905.812 118.328 905.832 118.317 905.852 118.306C905.864 118.299 905.876 118.294 905.888 118.287C906.118 118.151 906.35 118.021 906.585 117.897L906.778 117.799L906.78 117.797C910.479 115.915 914.777 115.608 918.725 116.974C926.973 119.828 931.041 128.199 928.187 136.447C926.778 140.52 921.553 146.297 914.71 151.409L912.538 146.689C913.008 146.325 913.476 145.954 913.936 145.579C918.782 141.622 922.495 137.386 923.394 134.788C924.326 132.093 924.202 129.296 923.043 126.911C921.885 124.527 919.762 122.7 917.067 121.768C914.225 120.784 911.111 121.097 908.517 122.626L907.01 123.397C906.386 123.716 906.139 124.48 906.458 125.103C906.739 125.653 907.367 125.909 907.938 125.744C908.339 126.924 908.353 128.194 907.963 129.408C907.467 130.952 906.39 132.19 904.93 132.897L876.41 146.726C875.288 147.271 873.933 146.802 873.389 145.681ZM906.991 134.637C908.594 133.589 909.781 132.042 910.377 130.184C910.975 128.324 910.911 126.373 910.215 124.587C912.08 123.634 914.248 123.475 916.238 124.164C920.455 125.623 922.456 129.742 920.997 133.959C920.398 135.691 917.431 139.452 912.332 143.615C912.041 143.853 911.745 144.088 911.449 144.322L906.991 134.637ZM897.956 139.097L903.111 149.846C901.774 150.554 900.572 151.089 899.657 151.379C898.006 151.902 895.596 152.372 893.488 151.643C891.405 150.922 889.792 149.069 888.807 147.641C888.269 146.864 887.657 145.732 887.043 144.389L897.956 139.097ZM901.955 158.632C898.159 159.834 894.207 159.922 891.112 158.871C891.089 158.863 891.067 158.856 891.045 158.848C887.916 157.766 884.822 155.261 882.546 151.965C881.78 150.856 880.977 149.4 880.196 147.709L884.76 145.496C885.431 146.96 886.1 148.185 886.72 149.083C887.921 150.822 889.927 153.094 892.658 154.039C895.423 154.996 898.407 154.435 900.423 153.796C901.471 153.464 902.764 152.896 904.209 152.135L906.404 156.711C904.758 157.568 903.236 158.226 901.955 158.632ZM912.824 158.979C912.281 159.243 911.667 159.28 911.097 159.082C910.526 158.885 910.067 158.477 909.806 157.94L900.238 137.991L904.738 135.809L909.813 146.835L909.815 146.84L913.789 155.473C914.392 156.998 914.006 158.404 912.824 158.979Z" fill="#F3F3F3" fill-opacity="0.7"/>
</g>
<g clip-path="url(#clip8)">
<path d="M1407.04 136.196L1406.41 135.783C1409.19 128.8 1411.56 119.69 1410.27 113.972C1409.17 109.145 1406.35 105.121 1402.32 102.642C1398.37 100.208 1393.61 99.4554 1388.91 100.522C1384.25 101.58 1380.25 104.441 1377.73 108.461C1373.61 105.721 1369.28 104.981 1364.21 106.13C1359.55 107.188 1355.59 109.977 1353.06 113.982C1350.51 118.003 1349.7 122.798 1350.76 127.484C1352.07 133.254 1358.32 140.502 1364.02 145.64L1363.25 146.902C1361.89 149.128 1362.58 152.071 1364.78 153.461C1365.9 154.166 1367.2 154.35 1368.4 154.078C1369.6 153.806 1370.69 153.079 1371.4 151.96L1371.63 151.589C1373.3 152.686 1374.84 153.543 1376.22 154.142C1380.38 155.949 1384.9 156.495 1388.65 155.645C1388.67 155.639 1388.7 155.633 1388.73 155.626C1392.43 154.763 1396.23 152.303 1399.16 148.876C1400.13 147.744 1401.13 146.313 1402.14 144.61L1402.18 144.635C1403.26 145.318 1404.55 145.538 1405.8 145.255C1407.05 144.971 1408.11 144.218 1408.79 143.134C1410.21 140.889 1409.49 137.986 1407.09 136.231C1407.07 136.218 1407.05 136.207 1407.04 136.196ZM1353.24 126.922C1351.37 118.69 1356.54 110.473 1364.77 108.603C1369.14 107.612 1372.87 108.258 1376.43 110.638L1373.81 114.991C1371.34 113.261 1369 112.845 1365.9 113.55C1360.3 114.821 1356.91 120.201 1358.18 125.799C1358.79 128.459 1362.06 133.06 1366.51 137.522C1367.02 138.028 1367.54 138.53 1368.06 139.021L1365.36 143.436C1358.91 137.55 1354.2 131.17 1353.24 126.922ZM1369.41 136.808C1369.04 136.452 1368.67 136.092 1368.31 135.729C1363.62 131.039 1361.06 127.003 1360.65 125.237C1359.7 121.027 1362.25 116.979 1366.46 116.023C1369.04 115.437 1370.69 115.786 1372.75 117.356C1372.32 118.825 1372.28 120.384 1372.65 121.908C1373.1 123.797 1374.13 125.456 1375.59 126.686L1369.41 136.808ZM1366.14 151.316C1365.1 150.66 1364.77 149.274 1365.41 148.224L1366.61 146.268C1366.61 146.261 1366.62 146.254 1366.63 146.247C1366.73 146.128 1366.81 145.994 1366.86 145.853L1378.36 127.014L1378.36 127.011L1378.36 127.009L1382.36 120.393C1382.73 119.794 1382.53 119.014 1381.93 118.652C1381.33 118.29 1380.55 118.482 1380.19 119.081L1376.93 124.48C1374.81 122.443 1374.29 119.11 1375.86 116.503L1379.06 111.184C1379.07 111.172 1379.08 111.16 1379.09 111.148C1379.11 111.128 1379.12 111.108 1379.14 111.087C1379.14 111.083 1379.15 111.08 1379.15 111.076C1379.16 111.066 1379.16 111.055 1379.17 111.044C1379.18 111.024 1379.2 111.005 1379.21 110.985C1379.22 110.965 1379.23 110.945 1379.25 110.925C1379.25 110.913 1379.26 110.902 1379.27 110.89C1379.39 110.653 1379.52 110.42 1379.65 110.19L1379.76 110.005L1379.77 110.003C1381.91 106.451 1385.4 103.921 1389.47 102.995C1397.99 101.063 1405.86 106.024 1407.79 114.534C1408.75 118.737 1407.36 126.402 1404.25 134.357L1399.91 131.497C1400.12 130.939 1400.32 130.377 1400.51 129.816C1402.54 123.896 1403.46 118.338 1402.85 115.657C1402.21 112.876 1400.63 110.566 1398.39 109.153C1396.15 107.741 1393.38 107.31 1390.6 107.942C1387.66 108.608 1385.19 110.518 1383.79 113.186L1382.92 114.637C1382.56 115.237 1382.75 116.016 1383.35 116.377C1383.88 116.695 1384.55 116.582 1384.95 116.139C1385.91 116.93 1386.59 118.001 1386.9 119.238C1387.3 120.81 1387.04 122.431 1386.17 123.802L1369.25 150.608C1368.59 151.662 1367.19 151.98 1366.14 151.316ZM1388.84 124.191C1389.65 122.455 1389.84 120.514 1389.36 118.621C1388.89 116.727 1387.8 115.104 1386.27 113.954C1387.35 112.16 1389.11 110.881 1391.16 110.415C1395.51 109.427 1399.39 111.868 1400.37 116.219C1400.78 118.006 1400.25 122.767 1398.11 128.995C1397.99 129.35 1397.87 129.707 1397.74 130.062L1388.84 124.191ZM1383.52 132.75L1393.58 139.156C1392.81 140.463 1392.07 141.552 1391.45 142.282C1390.33 143.597 1388.53 145.269 1386.35 145.763C1384.2 146.251 1381.85 145.53 1380.26 144.838C1379.4 144.461 1378.28 143.823 1377.05 143.008L1383.52 132.75ZM1397.23 147.227C1394.65 150.253 1391.34 152.414 1388.15 153.156C1388.13 153.162 1388.11 153.167 1388.08 153.172C1384.85 153.905 1380.9 153.412 1377.23 151.816C1375.99 151.279 1374.54 150.466 1372.99 149.443L1375.69 145.153C1377.04 146.041 1378.25 146.729 1379.25 147.164C1381.19 148.006 1384.09 148.876 1386.91 148.236C1389.77 147.589 1392 145.537 1393.38 143.93C1394.09 143.094 1394.89 141.928 1395.72 140.519L1400 143.246C1399.05 144.843 1398.11 146.206 1397.23 147.227ZM1406.65 141.782C1406.32 142.293 1405.82 142.648 1405.23 142.781C1404.65 142.915 1404.04 142.811 1403.53 142.493L1384.87 130.606L1387.54 126.376L1397.68 133.059L1397.68 133.062L1405.61 138.295C1406.93 139.271 1407.35 140.669 1406.65 141.782Z" fill="#F3F3F3" fill-opacity="0.7"/>
</g>
<defs>
<clipPath id="clip0">
<rect width="59.0969" height="59.0969" fill="white" transform="translate(158.205 103) rotate(13.908)"/>
</clipPath>
<clipPath id="clip1">
<rect width="59.0969" height="59.0969" fill="white" transform="translate(1269.2 26) rotate(13.908)"/>
</clipPath>
<clipPath id="clip2">
<rect width="59.0969" height="59.0969" fill="white" transform="translate(509 107.396) rotate(-11.119)"/>
</clipPath>
<clipPath id="clip3">
<rect width="42" height="42" fill="white" transform="translate(269.859 57.0571) rotate(-68.9531)"/>
</clipPath>
<clipPath id="clip4">
<rect width="42" height="42" fill="white" transform="translate(1026 151.198) rotate(-68.9531)"/>
</clipPath>
<clipPath id="clip5">
<rect width="42" height="42" fill="white" transform="translate(665.484 66.3052) rotate(-123.996)"/>
</clipPath>
<clipPath id="clip6">
<rect width="61.0187" height="61.0187" fill="white" transform="translate(86 28.3872) rotate(-26.6687)"/>
</clipPath>
<clipPath id="clip7">
<rect width="61.0187" height="61.0187" fill="white" transform="translate(879.951 97) rotate(19.0851)"/>
</clipPath>
<clipPath id="clip8">
<rect width="61.0187" height="61.0187" fill="white" transform="translate(1346 106.511) rotate(-12.7926)"/>
</clipPath>
</defs>
</svg>
