<svg width="20" height="21" viewBox="0 0 20 21" fill="none" xmlns="http://www.w3.org/2000/svg">
<path d="M6 16.2349C4.9 16.2349 4.01 17.1349 4.01 18.2349C4.01 19.3349 4.9 20.2349 6 20.2349C7.1 20.2349 8 19.3349 8 18.2349C8 17.1349 7.1 16.2349 6 16.2349ZM0 0.234863V2.23486H2L5.6 9.82486L4.25 12.2749C4.09 12.5549 4 12.8849 4 13.2349C4 14.3349 4.9 15.2349 6 15.2349H18V13.2349H6.42C6.28 13.2349 6.17 13.1249 6.17 12.9849L6.2 12.8649L7.1 11.2349H14.55C15.3 11.2349 15.96 10.8249 16.3 10.2049L19.88 3.71486C19.96 3.57486 20 3.40486 20 3.23486C20 2.68486 19.55 2.23486 19 2.23486H4.21L3.27 0.234863H0ZM16 16.2349C14.9 16.2349 14.01 17.1349 14.01 18.2349C14.01 19.3349 14.9 20.2349 16 20.2349C17.1 20.2349 18 19.3349 18 18.2349C18 17.1349 17.1 16.2349 16 16.2349Z" fill="#EAE9E9"/>
</svg>
